<svg width="37" height="37" viewBox="0 0 37 37" fill="none" xmlns="http://www.w3.org/2000/svg">
<path d="M29.6924 3.59102L25.6513 3.00622C25.5317 2.98283 25.4121 3.02961 25.3643 3.07639L23.6426 5.27522C23.5231 5.41557 23.4992 5.6027 23.547 5.76645C23.5948 5.93019 23.4513 6.07054 23.284 6.04715L21.8731 5.74305C21.6579 5.69627 21.4188 5.76645 21.2753 5.95358L15.6799 12.9711C15.5842 13.1115 15.3929 13.1582 15.2256 13.0881L13.0974 12.1524C12.9061 12.0588 12.6909 12.0822 12.5235 12.1992L11.4474 12.9243C11.2801 13.0413 11.0409 13.0647 10.8496 12.9711L10.3236 12.7138C9.9888 12.5501 9.58229 12.7372 9.48664 13.0881L9.10405 14.7489C9.0084 15.1465 9.17579 15.5442 9.53447 15.7547L10.3475 16.246L12.9539 17.8132L14.2212 18.5851C14.5799 18.7957 15.0343 18.7489 15.3451 18.4916L17.4733 16.667C17.6407 16.5267 17.9037 16.4799 18.095 16.5968L18.7406 16.9243C18.9559 17.0413 19.2189 16.9945 19.3863 16.8307L20.4623 15.8483C20.6297 15.6846 20.8927 15.6612 21.084 15.7547L22.6862 16.4799C22.9253 16.5968 23.2122 16.5267 23.3796 16.3161L24.1209 15.3805L29.7402 8.33954C30.0033 8.01205 29.8359 7.52083 29.4055 7.42726L28.162 7.14656C27.899 7.09977 27.7794 6.77229 27.9707 6.58516L29.9076 4.22259C30.0989 3.94189 29.9794 3.6378 29.6924 3.59102Z" fill="#8257E6"/>
<path d="M11.1583 17.7654C11.0388 17.6952 10.9192 17.8122 10.967 17.9291L11.5648 19.473C11.6127 19.5899 11.6127 19.7069 11.5887 19.8239L11.0627 21.8355C11.0388 21.9759 11.0866 22.1162 11.1822 22.1864L12.6887 23.3326C12.8322 23.4262 13.0235 23.4262 13.143 23.3092L14.7212 21.9525C14.8169 21.8823 14.9365 21.8356 15.0321 21.8122L16.8255 21.625C16.9451 21.6016 16.9929 21.4379 16.8733 21.3677L11.1583 17.7654Z" fill="#8257E6"/>
<path d="M10.6324 22.9608C10.5367 22.8906 10.3933 22.8672 10.2737 22.914L9.00637 23.5222C8.93463 23.5456 8.8868 23.6157 8.83898 23.6859L6.13691 30.2122C6.13691 30.2356 6.13691 30.2356 6.13691 30.259C6.16082 30.2824 6.18473 30.3058 6.23256 30.3058L6.85427 30.0719C6.87818 30.0719 6.90209 30.0719 6.92601 30.0719C6.94992 30.0952 6.97383 30.142 6.94992 30.1654L5.01303 33.2765C4.96521 33.3467 5.06086 33.4169 5.10868 33.3467L12.1149 26.4695C12.1867 26.3994 12.2106 26.3292 12.2345 26.2356L12.378 24.4578C12.378 24.3409 12.3302 24.2473 12.2584 24.1771L10.6324 22.9608Z" fill="#8257E6"/>
</svg>
